<svg xmlns="http://www.w3.org/2000/svg" viewBox="0 0 1028.67 1027.4"><defs><style>.cls-1{fill:#fff;stroke:#000;}.cls-1,.cls-3,.cls-4{stroke-miterlimit:10;}.cls-2,.cls-4{fill:none;}.cls-3{fill:#666;}.cls-3,.cls-4{stroke:#666;stroke-width:5px;}</style></defs><title>configure_container</title><g id="Livello_1" data-name="Livello 1"><path class="cls-1" d="M.5,1023.5" transform="translate(1.83 2)"/><path class="cls-2" d="M1,1023" transform="translate(1.83 2)"/><path class="cls-3" d="M1024.5,1024.5s-127-332-320-332S320,692,320,692C128,693,.5,1024.5.5,1024.5" transform="translate(1.83 2)"/></g><g id="Livello_3" data-name="Livello 3"><polyline class="cls-4" points="447.83 309.48 493.33 2.5 545.33 2.5 502.83 310.12"/><polyline class="cls-4" points="525.83 309.48 571.33 2.5 623.33 2.5 580.83 310.12"/></g><g id="Livello_2" data-name="Livello 2"><path class="cls-2" d="M320,692" transform="translate(1.83 2)"/><path class="cls-4" d="M703.5,691.5l55-348s0-37-55-36S320,308,320,308c-55,0-54,36-54,36l54,348" transform="translate(1.83 2)"/></g></svg>